<svg id="Capa_1" enable-background="new 0 0 512 512" height="512" viewBox="0 0 512 512" width="512" xmlns="http://www.w3.org/2000/svg"><g><g><g><path d="m203.101 315.011c-4.142 0-7.5 3.358-7.5 7.5l.002 132.043c0 4.142 3.358 7.5 7.5 7.5s7.5-3.358 7.5-7.5l-.002-132.043c0-4.142-3.358-7.5-7.5-7.5z"/><path d="m39.273 359.29h-.105c-4.142 0-7.5 3.358-7.5 7.5s3.358 7.5 7.5 7.5h.105c4.142 0 7.5-3.358 7.5-7.5s-3.357-7.5-7.5-7.5z"/><path d="m401.819 359.29h-.105c-4.142 0-7.5 3.358-7.5 7.5s3.358 7.5 7.5 7.5h.105c4.142 0 7.5-3.358 7.5-7.5s-3.358-7.5-7.5-7.5z"/><path d="m495.102 338.096-47.624-183.641c2.787-1.051 5.35-2.561 7.597-4.44h34.208c11.128 0 20.181-9.053 20.181-20.181 0-11.127-9.053-20.181-20.181-20.181h-34.208c-4.568-3.821-10.445-6.126-16.852-6.126-4.391 0-8.531 1.087-12.174 2.998-4.32-1.437-8.483-3.334-12.375-5.696-1.174-.712-2.425-1.43-3.937-2.257-3.633-1.988-8.191-.654-10.18 2.979s-.654 8.191 2.979 10.18c1.311.717 2.376 1.327 3.354 1.92 2.813 1.707 5.737 3.224 8.746 4.551-1.527 3.084-2.468 6.506-2.674 10.123-3.95-1.653-7.78-3.589-11.449-5.816-11.856-7.198-25.456-11.003-39.327-11.003h-24.426v-10.362h24.426c3.366 0 6.843.214 10.333.635.306.037.609.055.909.055 3.741 0 6.977-2.795 7.437-6.602.497-4.112-2.435-7.849-6.546-8.345-4.086-.494-8.167-.744-12.132-.744h-24.427v-8.691c0-.003 0-.005 0-.008v-6.483c0-5.613-2.186-10.891-6.155-14.859-3.969-3.969-9.247-6.155-14.859-6.155h-9.573c-5.142 0-9.853 1.863-13.509 4.941-3.782-3.192-8.515-4.941-13.52-4.94h-9.573c-5.142 0-9.853 1.863-13.509 4.94-3.782-3.192-8.514-4.94-13.52-4.94h-9.573c-5.142 0-9.853 1.863-13.509 4.94-3.782-3.192-8.514-4.94-13.52-4.94h-9.573c-5.613 0-10.891 2.186-14.859 6.155-3.969 3.969-6.155 9.247-6.155 14.859v15.18h-24.536c-18.514 0-36.664 5.078-52.488 14.685-3.888 2.36-8.035 4.275-12.347 5.711-3.65-1.92-7.799-3.012-12.202-3.012-6.407 0-12.284 2.305-16.852 6.126h-34.211c-11.128 0-20.181 9.053-20.181 20.181s9.053 20.181 20.181 20.181h34.208c2.246 1.879 4.809 3.389 7.597 4.44l-47.624 183.642c-9.521 1.261-16.898 9.411-16.898 19.272v4.855c0 27.385 22.279 49.664 49.664 49.664h48.228c27.385 0 49.664-22.279 49.664-49.664v-4.855c0-9.86-7.377-18.011-16.898-19.272l-47.624-183.642c4.495-1.696 8.405-4.589 11.344-8.289 8.745-2.481 17.118-6.116 24.894-10.835 9.51-5.773 20.417-8.825 31.542-8.825h25.379c-2.313 3.631-4.221 7.522-5.633 11.602l-7.963 22.994c-3.027 8.741-2.521 18.162 1.423 26.529l5.795 12.292c3.312 7.025 7.776 13.372 13.268 18.864l12.516 12.515v55.816c0 4.142 3.358 7.5 7.5 7.5s7.5-3.358 7.5-7.5v-42.526c.517.11 1.042.17 1.568.17 1.919 0 3.839-.732 5.303-2.197 2.929-2.929 2.929-7.678 0-10.606l-23.78-23.779c-4.267-4.267-7.734-9.197-10.307-14.654l-5.795-12.292c-2.264-4.801-2.554-10.208-.817-15.223l7.963-22.994c2.178-6.289 5.918-11.992 10.818-16.493l52.56-48.292c.538-.45 1.336-.416 1.835.082 3.656 3.656 5.67 8.518 5.67 13.688s-2.013 10.032-5.669 13.688l-29.146 29.146c-2.929 2.929-2.929 7.678 0 10.606l4.698 4.698c8.153 8.153 11.373 19.715 8.612 30.928-.99 4.022 1.468 8.085 5.49 9.076 4.024.989 8.085-1.467 9.076-5.49 2.377-9.655 1.693-19.48-1.698-28.364 6.867-2.639 12.328-8.129 14.924-15.017 3.695 2.045 7.939 3.213 12.453 3.213 6.892 0 13.371-2.685 18.244-7.558 1.703-1.703 3.132-3.605 4.279-5.649 4.052 2.65 8.887 4.197 14.08 4.197 3.792 0 7.457-.817 10.801-2.36v27.724c0 12.646-4.197 25.167-11.819 35.257l-12.415 16.437c-.983 1.302-1.515 2.889-1.515 4.521l.003 237.5c0 4.142 3.358 7.5 7.5 7.5s7.5-3.358 7.5-7.5l-.003-234.985 10.899-14.43c9.576-12.677 14.85-28.409 14.85-44.298v-34.335h24.426c11.125 0 22.033 3.052 31.543 8.826 7.776 4.72 16.155 8.369 24.904 10.849 2.938 3.693 6.844 6.582 11.334 8.276l-47.624 183.641c-9.521 1.261-16.898 9.412-16.898 19.272v4.855c0 27.385 22.279 49.664 49.664 49.664h48.228c27.385 0 49.664-22.279 49.664-49.664v-4.855c-.002-9.863-7.379-18.013-16.9-19.274zm-410.018-208.263c0 6.234-5.072 11.307-11.307 11.307s-11.307-5.072-11.307-11.307 5.072-11.307 11.307-11.307 11.307 5.073 11.307 11.307zm-67.548 0c0-2.856 2.324-5.181 5.181-5.181h25.269c-.336 1.676-.515 3.408-.515 5.181s.179 3.505.515 5.181h-25.269c-2.857 0-5.181-2.324-5.181-5.181zm115.02 232.39c0 19.114-15.55 34.664-34.664 34.664h-48.228c-19.114 0-34.664-15.55-34.664-34.664v-4.855c0-2.46 2.001-4.461 4.461-4.461h45.143c4.142 0 7.5-3.358 7.5-7.5s-3.358-7.5-7.5-7.5h-32.161l41.335-159.39 41.335 159.39h-15.114c-4.142 0-7.5 3.358-7.5 7.5s3.358 7.5 7.5 7.5h28.096c2.46 0 4.461 2.001 4.461 4.461zm-21.068-239.716c-3.67 2.228-7.5 4.165-11.45 5.818-.206-3.617-1.146-7.039-2.673-10.123 3.008-1.327 5.932-2.845 8.745-4.553 13.477-8.182 28.935-12.507 44.704-12.507h24.536v10.362h-24.536c-13.871 0-27.47 3.805-39.326 11.003zm78.863-11.576v-39.969c0-1.606.625-3.117 1.761-4.252 1.136-1.136 2.646-1.762 4.253-1.762h9.574c1.606 0 3.117.625 4.252 1.761 1.136 1.136 1.762 2.646 1.762 4.253v20.121zm47.685-43.813-11.084 10.184v-6.34c0-3.316 2.698-6.015 6.014-6.015h8.149c-1.046.574-2.049 1.257-2.977 2.078-.034.031-.068.062-.102.093zm1.117 75.781c-.781-.941-1.588-1.866-2.447-2.756l11.849-11.849v3.905c0 5.481-4.106 10.011-9.402 10.7zm35.203-13.413c-5.955 0-10.799-4.844-10.801-10.799v-5.826c4.576-5.963 7.062-13.219 7.062-20.862 0-7.647-2.489-14.907-7.071-20.872.001-.056.008-.111.008-.167 0-3.316 2.698-6.015 6.014-6.015h9.574c1.606 0 3.117.625 4.252 1.761 1.136 1.136 1.762 2.646 1.762 4.253v47.724c.001 5.957-4.844 10.802-10.8 10.803zm44.24-12.174c-2.04 2.041-4.753 3.164-7.638 3.164-5.956 0-10.801-4.845-10.801-10.801 0-.001 0-.001 0-.002v-38.712c0-3.316 2.698-6.015 6.015-6.015h9.573c1.606 0 3.117.625 4.252 1.761 1.136 1.136 1.762 2.646 1.762 4.253v38.714c0 2.886-1.123 5.598-3.163 7.638zm160.961 220.595h-82.67l41.335-159.389zm14.907-208.074c0 2.857-2.324 5.181-5.181 5.181h-25.269c.336-1.676.515-3.408.515-5.181s-.179-3.505-.515-5.181h25.269c2.857 0 5.181 2.325 5.181 5.181zm-44.935 0c0 6.234-5.072 11.307-11.307 11.307s-11.307-5.072-11.307-11.307 5.072-11.307 11.307-11.307 11.307 5.073 11.307 11.307zm47.471 232.39c0 19.114-15.55 34.664-34.664 34.664h-48.228c-19.114 0-34.664-15.55-34.664-34.664v-4.855c0-2.46 2.001-4.461 4.461-4.461h108.634c2.46 0 4.461 2.001 4.461 4.461z"/></g></g></g></svg>